<svg width="54" height="16" viewBox="0 0 54 16" fill="none" xmlns="http://www.w3.org/2000/svg">
<path d="M5.64062 2.01562C4.56771 2.01562 3.72396 2.39583 3.10938 3.15625C2.49479 3.91667 2.1875 4.96615 2.1875 6.30469C2.1875 7.70573 2.48177 8.76562 3.07031 9.48438C3.66406 10.2031 4.52083 10.5625 5.64062 10.5625C6.125 10.5625 6.59375 10.5156 7.04688 10.4219C7.5 10.3229 7.97135 10.1979 8.46094 10.0469V11.6484C7.5651 11.987 6.54948 12.1562 5.41406 12.1562C3.74219 12.1562 2.45833 11.651 1.5625 10.6406C0.666667 9.625 0.21875 8.17448 0.21875 6.28906C0.21875 5.10156 0.434896 4.0625 0.867188 3.17188C1.30469 2.28125 1.9349 1.59896 2.75781 1.125C3.58073 0.651042 4.54688 0.414062 5.65625 0.414062C6.82292 0.414062 7.90104 0.658854 8.89062 1.14844L8.21875 2.70312C7.83333 2.52083 7.42448 2.36198 6.99219 2.22656C6.5651 2.08594 6.11458 2.01562 5.64062 2.01562ZM17.2188 3.35938V4.79688H14.4062V12H12.5625V4.79688H9.75V3.35938H17.2188ZM17.5703 3.35938H19.5703L21.3281 8.25781C21.5938 8.95573 21.7708 9.61198 21.8594 10.2266H21.9219C21.9688 9.9401 22.0547 9.59375 22.1797 9.1875C22.3047 8.77604 22.9661 6.83333 24.1641 3.35938H26.1484L22.4531 13.1484C21.7812 14.9453 20.6615 15.8438 19.0938 15.8438C18.6875 15.8438 18.2917 15.7995 17.9062 15.7109V14.2578C18.1823 14.3203 18.4974 14.3516 18.8516 14.3516C19.737 14.3516 20.3594 13.8385 20.7188 12.8125L21.0391 12L17.5703 3.35938ZM34.5625 12H32.7109V4.79688H30.3281C30.1823 6.65104 29.9844 8.09896 29.7344 9.14062C29.4896 10.1823 29.1667 10.9427 28.7656 11.4219C28.3698 11.901 27.8542 12.1406 27.2188 12.1406C26.8177 12.1406 26.4818 12.0833 26.2109 11.9688V10.5312C26.4036 10.6042 26.5964 10.6406 26.7891 10.6406C27.3203 10.6406 27.737 10.0443 28.0391 8.85156C28.3464 7.65365 28.5859 5.82292 28.7578 3.35938H34.5625V12ZM39.0312 6.8125H41.1953C43.6068 6.8125 44.8125 7.64583 44.8125 9.3125C44.8125 10.1927 44.5052 10.862 43.8906 11.3203C43.276 11.7734 42.3776 12 41.1953 12H37.1953V3.35938H39.0312V6.8125ZM42.9688 9.35938C42.9688 8.92708 42.8047 8.625 42.4766 8.45312C42.1484 8.28125 41.6849 8.19531 41.0859 8.19531H39.0312V10.6406H41.1172C41.7214 10.6406 42.1797 10.5312 42.4922 10.3125C42.8099 10.0938 42.9688 9.77604 42.9688 9.35938ZM47.7344 12H45.6797L48.0859 8.46094C47.5026 8.29427 47.0443 7.9974 46.7109 7.57031C46.3776 7.13802 46.2109 6.60417 46.2109 5.96875C46.2109 5.15104 46.5026 4.51302 47.0859 4.05469C47.6693 3.59115 48.4661 3.35938 49.4766 3.35938H53.4141V12H51.5703V8.67188H49.8281L47.7344 12ZM48 5.98438C48 6.42708 48.1667 6.76042 48.5 6.98438C48.8385 7.20312 49.2917 7.3125 49.8594 7.3125H51.5703V4.75H49.5703C49.0703 4.75 48.6823 4.85677 48.4062 5.07031C48.1354 5.28385 48 5.58854 48 5.98438Z" fill="black"/>
<path d="M-0.726562 13.6016H54.7266V14.3984H-0.726562V13.6016Z" fill="black"/>
</svg>
