<svg width="64" height="16" viewBox="0 0 64 16" fill="none" xmlns="http://www.w3.org/2000/svg">
<path d="M0.242188 10.3984H1.125C1.88021 9.01823 2.51302 7.46875 3.02344 5.75C3.53385 4.03125 3.86198 2.30729 4.00781 0.578125H9.90625V10.3984H11.3828V15.1484H9.58594V12H2.03906V15.1484H0.242188V10.3984ZM5.57031 2.19531C5.45573 3.3776 5.16406 4.75 4.69531 6.3125C4.22656 7.86979 3.69271 9.23177 3.09375 10.3984H8.03906V2.19531H5.57031ZM14.7969 3.35938V7.78906C14.7969 8.30469 14.7552 9.0625 14.6719 10.0625L19.0078 3.35938H21.25V12H19.4844V7.64844C19.4844 7.40885 19.4974 7.02083 19.5234 6.48438C19.5547 5.94792 19.5807 5.55729 19.6016 5.3125L15.2812 12H13.0391V3.35938H14.7969ZM31.3672 5.57031C31.3672 6.59115 30.7708 7.20833 29.5781 7.42188V7.48438C30.2448 7.5625 30.7552 7.77344 31.1094 8.11719C31.4635 8.46094 31.6406 8.90625 31.6406 9.45312C31.6406 10.2708 31.3281 10.901 30.7031 11.3438C30.0833 11.7812 29.1797 12 27.9922 12H23.8672V3.35938H27.9766C30.237 3.35938 31.3672 4.09635 31.3672 5.57031ZM29.7578 9.34375C29.7578 8.92708 29.5964 8.63281 29.2734 8.46094C28.9505 8.28385 28.4661 8.19531 27.8203 8.19531H25.7031V10.6406H27.8672C29.1276 10.6406 29.7578 10.2083 29.7578 9.34375ZM29.5312 5.72656C29.5312 5.38281 29.3958 5.13542 29.125 4.98438C28.8594 4.82812 28.4609 4.75 27.9297 4.75H25.7031V6.82812H27.6562C28.2708 6.82812 28.737 6.75 29.0547 6.59375C29.3724 6.43229 29.5312 6.14323 29.5312 5.72656ZM38.9453 12L38.5781 10.7969H38.5156C38.099 11.3229 37.6797 11.6823 37.2578 11.875C36.8359 12.0625 36.2943 12.1562 35.6328 12.1562C34.7839 12.1562 34.1198 11.9271 33.6406 11.4688C33.1667 11.0104 32.9297 10.362 32.9297 9.52344C32.9297 8.63281 33.2604 7.96094 33.9219 7.50781C34.5833 7.05469 35.5911 6.80729 36.9453 6.76562L38.4375 6.71875V6.25781C38.4375 5.70573 38.3073 5.29427 38.0469 5.02344C37.7917 4.7474 37.3932 4.60938 36.8516 4.60938C36.4089 4.60938 35.9844 4.67448 35.5781 4.80469C35.1719 4.9349 34.7812 5.08854 34.4062 5.26562L33.8125 3.95312C34.2812 3.70833 34.7943 3.52344 35.3516 3.39844C35.9089 3.26823 36.4349 3.20312 36.9297 3.20312C38.0286 3.20312 38.8568 3.44271 39.4141 3.92188C39.9766 4.40104 40.2578 5.15365 40.2578 6.17969V12H38.9453ZM36.2109 10.75C36.8776 10.75 37.4115 10.5651 37.8125 10.1953C38.2188 9.82031 38.4219 9.29688 38.4219 8.625V7.875L37.3125 7.92188C36.4479 7.95312 35.8177 8.09896 35.4219 8.35938C35.0312 8.61458 34.8359 9.00781 34.8359 9.53906C34.8359 9.92448 34.9505 10.224 35.1797 10.4375C35.4089 10.6458 35.7526 10.75 36.2109 10.75ZM44.6562 3.35938V6.82812H48.7266V3.35938H50.5625V12H48.7266V8.27344H44.6562V12H42.8203V3.35938H44.6562ZM55.0312 6.8125H56.7812C57.9896 6.8125 58.8828 7.02083 59.4609 7.4375C60.0391 7.85417 60.3281 8.47917 60.3281 9.3125C60.3281 10.2031 60.026 10.875 59.4219 11.3281C58.8229 11.776 57.9427 12 56.7812 12H53.1953V3.35938H55.0312V6.8125ZM58.5078 9.35938C58.5078 8.92708 58.3464 8.625 58.0234 8.45312C57.7057 8.28125 57.2474 8.19531 56.6484 8.19531H55.0312V10.6406H56.4141C57.1536 10.6406 57.6875 10.5365 58.0156 10.3281C58.3438 10.1198 58.5078 9.79688 58.5078 9.35938ZM63.5312 12H61.6875V3.35938H63.5312V12Z" fill="black"/>
</svg>
