<svg width="55" height="16" viewBox="0 0 55 16" fill="none" xmlns="http://www.w3.org/2000/svg">
<path d="M9.57031 12H7.375L2.67188 6.21094V12H0.804688V0.578125H2.67188V6.10938L7.29688 0.578125H9.34375L4.73438 6.09375L9.57031 12ZM15.2734 12.1562C14.1797 12.1562 13.3307 11.763 12.7266 10.9766H12.6172C12.6901 11.7057 12.7266 12.1484 12.7266 12.3047V15.8438H10.8906V3.35938H12.375C12.4167 3.52083 12.5026 3.90625 12.6328 4.51562H12.7266C13.2995 3.64062 14.1589 3.20312 15.3047 3.20312C16.3828 3.20312 17.2214 3.59375 17.8203 4.375C18.4245 5.15625 18.7266 6.2526 18.7266 7.66406C18.7266 9.07552 18.4193 10.1771 17.8047 10.9688C17.1953 11.7604 16.3516 12.1562 15.2734 12.1562ZM14.8281 4.70312C14.099 4.70312 13.5651 4.91667 13.2266 5.34375C12.8932 5.77083 12.7266 6.45312 12.7266 7.39062V7.66406C12.7266 8.71615 12.8932 9.47917 13.2266 9.95312C13.5599 10.4219 14.1042 10.6562 14.8594 10.6562C15.4948 10.6562 15.9844 10.3958 16.3281 9.875C16.6719 9.35417 16.8438 8.61198 16.8438 7.64844C16.8438 6.67969 16.6719 5.94792 16.3281 5.45312C15.9896 4.95312 15.4896 4.70312 14.8281 4.70312ZM24.6328 12.1562C23.2891 12.1562 22.237 11.7656 21.4766 10.9844C20.7214 10.1979 20.3438 9.11719 20.3438 7.74219C20.3438 6.33073 20.6953 5.22135 21.3984 4.41406C22.1016 3.60677 23.0677 3.20312 24.2969 3.20312C25.4375 3.20312 26.3385 3.54948 27 4.24219C27.6615 4.9349 27.9922 5.88802 27.9922 7.10156V8.09375H22.2344C22.2604 8.93229 22.487 9.57812 22.9141 10.0312C23.3411 10.4792 23.9427 10.7031 24.7188 10.7031C25.2292 10.7031 25.7031 10.6562 26.1406 10.5625C26.5833 10.4635 27.0573 10.3021 27.5625 10.0781V11.5703C27.1146 11.7839 26.6615 11.9349 26.2031 12.0234C25.7448 12.112 25.2214 12.1562 24.6328 12.1562ZM24.2969 4.59375C23.7135 4.59375 23.2448 4.77865 22.8906 5.14844C22.5417 5.51823 22.3333 6.05729 22.2656 6.76562H26.1875C26.1771 6.05208 26.0052 5.51302 25.6719 5.14844C25.3385 4.77865 24.8802 4.59375 24.2969 4.59375ZM33.5625 12.1562C32.2552 12.1562 31.2604 11.776 30.5781 11.0156C29.901 10.25 29.5625 9.15365 29.5625 7.72656C29.5625 6.27344 29.9167 5.15625 30.625 4.375C31.3385 3.59375 32.3672 3.20312 33.7109 3.20312C34.6224 3.20312 35.4427 3.3724 36.1719 3.71094L35.6172 5.1875C34.8411 4.88542 34.2005 4.73438 33.6953 4.73438C32.2005 4.73438 31.4531 5.72656 31.4531 7.71094C31.4531 8.67969 31.638 9.40885 32.0078 9.89844C32.3828 10.3828 32.9297 10.625 33.6484 10.625C34.4661 10.625 35.2396 10.4219 35.9688 10.0156V11.6172C35.6406 11.8099 35.2891 11.9479 34.9141 12.0312C34.5443 12.1146 34.0938 12.1562 33.5625 12.1562ZM45.1016 12H43.25V4.79688H40.8672C40.7214 6.65104 40.5234 8.09896 40.2734 9.14062C40.0286 10.1823 39.7057 10.9427 39.3047 11.4219C38.9089 11.901 38.3932 12.1406 37.7578 12.1406C37.3568 12.1406 37.0208 12.0833 36.75 11.9688V10.5312C36.9427 10.6042 37.1354 10.6406 37.3281 10.6406C37.8594 10.6406 38.276 10.0443 38.5781 8.85156C38.8854 7.65365 39.125 5.82292 39.2969 3.35938H45.1016V12ZM53.1406 12L52.7734 10.7969H52.7109C52.2943 11.3229 51.875 11.6823 51.4531 11.875C51.0312 12.0625 50.4896 12.1562 49.8281 12.1562C48.9792 12.1562 48.3151 11.9271 47.8359 11.4688C47.362 11.0104 47.125 10.362 47.125 9.52344C47.125 8.63281 47.4557 7.96094 48.1172 7.50781C48.7786 7.05469 49.7865 6.80729 51.1406 6.76562L52.6328 6.71875V6.25781C52.6328 5.70573 52.5026 5.29427 52.2422 5.02344C51.987 4.7474 51.5885 4.60938 51.0469 4.60938C50.6042 4.60938 50.1797 4.67448 49.7734 4.80469C49.3672 4.9349 48.9766 5.08854 48.6016 5.26562L48.0078 3.95312C48.4766 3.70833 48.9896 3.52344 49.5469 3.39844C50.1042 3.26823 50.6302 3.20312 51.125 3.20312C52.224 3.20312 53.0521 3.44271 53.6094 3.92188C54.1719 4.40104 54.4531 5.15365 54.4531 6.17969V12H53.1406ZM50.4062 10.75C51.0729 10.75 51.6068 10.5651 52.0078 10.1953C52.4141 9.82031 52.6172 9.29688 52.6172 8.625V7.875L51.5078 7.92188C50.6432 7.95312 50.013 8.09896 49.6172 8.35938C49.2266 8.61458 49.0312 9.00781 49.0312 9.53906C49.0312 9.92448 49.1458 10.224 49.375 10.4375C49.6042 10.6458 49.9479 10.75 50.4062 10.75Z" fill="black"/>
</svg>
