<svg width="62" height="205" viewBox="0 0 62 205" fill="none" xmlns="http://www.w3.org/2000/svg">
<path d="M12.207 24.8477C6.07422 24.8477 2.07031 29.6719 2.07031 36C2.07031 42.4453 6.19141 46.5664 11.7578 46.5664C17.793 46.5664 21.875 41.7617 21.875 35.3555C21.875 29.0078 17.832 24.8477 12.207 24.8477ZM11.8359 25.5508C15.1562 25.5508 18.0078 28.3242 18.0078 35.4727C18.0078 41.9961 15.5664 45.8438 12.1289 45.8438C8.80859 45.8438 5.95703 43.0703 5.95703 35.8828C5.95703 29.3594 8.39844 25.5508 11.8359 25.5508ZM36.1406 24.9648C34.1094 26.3906 31.7461 26.918 27.8984 26.9961V27.875C31.5117 27.875 32.5469 28.3633 32.5469 32.1914V41.8789C32.5469 44.4766 30.9453 45.1602 28.3086 45.1602V46C29.5391 45.9609 31.9805 45.8438 34.4609 45.8438C36.6289 45.8438 38.8945 45.9609 39.9883 46V45.1602C37.2148 45.1602 36.1406 44.4375 36.1406 41.8789V24.9648Z" fill="black"/>
<path d="M23.1035 90.4238C20.0371 90.4238 18.0352 92.8359 18.0352 96C18.0352 99.2227 20.0957 101.283 22.8789 101.283C25.8965 101.283 27.9375 98.8809 27.9375 95.6777C27.9375 92.5039 25.916 90.4238 23.1035 90.4238ZM22.918 90.7754C24.5781 90.7754 26.0039 92.1621 26.0039 95.7363C26.0039 98.998 24.7832 100.922 23.0645 100.922C21.4043 100.922 19.9785 99.5352 19.9785 95.9414C19.9785 92.6797 21.1992 90.7754 22.918 90.7754ZM34.8945 90.4238C32.7363 90.4238 31.5547 91.6641 30.9492 92.9238L31.2715 93.0996C31.9746 91.8398 32.8926 91.2246 33.9473 91.2246C35.1875 91.2246 35.9492 91.8594 35.9492 93.3828C35.9492 96.6836 32.6484 98.9199 31.0273 100.658V101H35.7148C36.916 101 38.332 101.02 38.6934 101.098C38.6348 100.482 38.6152 99.8574 38.6152 98.4414H38.2734C38.1758 99.2031 38.0293 99.457 36.9355 99.457H32.873C34.3281 97.4844 37.8926 95.5996 37.8926 92.9434C37.8926 91.3223 36.7305 90.4238 34.8945 90.4238Z" fill="black" fill-opacity="0.3"/>
<path d="M23.1035 139.424C20.0371 139.424 18.0352 141.836 18.0352 145C18.0352 148.223 20.0957 150.283 22.8789 150.283C25.8965 150.283 27.9375 147.881 27.9375 144.678C27.9375 141.504 25.916 139.424 23.1035 139.424ZM22.918 139.775C24.5781 139.775 26.0039 141.162 26.0039 144.736C26.0039 147.998 24.7832 149.922 23.0645 149.922C21.4043 149.922 19.9785 148.535 19.9785 144.941C19.9785 141.68 21.1992 139.775 22.918 139.775ZM34.5527 139.424C32.5703 139.424 31.4961 140.615 30.8906 141.924L31.2324 142.08C31.8477 140.879 32.7949 140.303 33.8887 140.303C34.9531 140.303 35.627 140.84 35.627 142.1C35.627 143.115 35.168 144.16 34.0938 144.98C33.8301 144.961 33.6152 144.902 33.3906 144.902C33.1074 144.902 32.873 145.039 32.873 145.283C32.873 145.439 32.9707 145.537 33.1953 145.537C33.4297 145.537 33.7324 145.4 34.1328 145.244C35.4316 145.342 36.252 146.484 36.252 148.037C36.252 150.996 33.4883 152.598 30.7539 152.656V153.018C34.1719 153.018 38.1562 151.084 38.1562 148.037C38.1562 145.977 36.3105 145.039 34.4551 145C35.9688 144.463 37.4336 143.262 37.4336 141.699C37.4336 140.283 36.2129 139.424 34.5527 139.424Z" fill="black" fill-opacity="0.3"/>
<path d="M24.1035 188.424C21.0371 188.424 19.0352 190.836 19.0352 194C19.0352 197.223 21.0957 199.283 23.8789 199.283C26.8965 199.283 28.9375 196.881 28.9375 193.678C28.9375 190.504 26.916 188.424 24.1035 188.424ZM23.918 188.775C25.5781 188.775 27.0039 190.162 27.0039 193.736C27.0039 196.998 25.7832 198.922 24.0645 198.922C22.4043 198.922 20.9785 197.535 20.9785 193.941C20.9785 190.68 22.1992 188.775 23.918 188.775ZM40.1719 198.023C40.1133 197.438 40.0938 196.881 40.0938 195.562H39.752C39.6543 196.324 39.5078 196.578 38.4141 196.578H38.1699V188.424H37.8477L31.3535 197.496V197.916H36.5684V201.822H38.1699V197.926C39.0684 197.936 39.9082 197.955 40.1719 198.023ZM36.5684 196.578H32.5352L36.5684 190.875V196.578Z" fill="black" fill-opacity="0.3"/>
<path d="M61 7L61 61" stroke="black" stroke-width="2"/>
</svg>
